<svg xmlns="http://www.w3.org/2000/svg" viewBox="0 0 740 380" width="100%" height="100%">
  <defs>
    <clipPath id="ct"><rect x="0" y="0" width="56" height="30" rx="5" /></clipPath>
    <clipPath id="cb"><rect x="0" y="30" width="56" height="30" rx="5" /></clipPath>
    <linearGradient id="th" x1="0" y1="0" x2="0" y2="1">
      <stop offset="0%" stop-color="#EDE8E1" stop-opacity="0.08" />
      <stop offset="100%" stop-color="#EDE8E1" stop-opacity="0.0" />
    </linearGradient>
    <linearGradient id="cs" x1="0" y1="0" x2="0" y2="1">
      <stop offset="0%" stop-color="#000000" stop-opacity="0.5" />
      <stop offset="100%" stop-color="#000000" stop-opacity="0.0" />
    </linearGradient>
    <filter id="sh" x="-10%" y="-10%" width="120%" height="120%">
      <feDropShadow dx="0" dy="2.5" stdDeviation="2.5" flood-color="#000000" flood-opacity="0.5" />
    </filter>
  </defs>

  <style>
    .st { font-family: ui-monospace, 'Cascadia Code', 'Source Code Pro', Menlo, Monaco, Consolas, 'Courier New', monospace; font-weight: 800; font-size: 34px; text-anchor: middle; dominant-baseline: central; }
  </style>

  <rect x="8" y="8" width="724" height="364" rx="16" fill="#1B1917" stroke="#B5623B" stroke-width="1.5" stroke-opacity="0.4" />
  <rect x="14" y="14" width="712" height="352" rx="12" fill="#141211" stroke="#262320" stroke-width="1" />
  <circle cx="28" cy="27" r="3.5" fill="#B5623B" />
  <text x="40" y="28" fill="#B5623B" font-family="system-ui, sans-serif" font-size="9" font-weight="700" letter-spacing="2" dominant-baseline="central">DEPARTURE BOARD • PROFILE STATS</text>
  <text x="712" y="28" text-anchor="end" fill="#EDE8E1" font-family="ui-monospace, monospace" font-size="9" opacity="0.4" dominant-baseline="central">5x11 SOLARI MATRIX</text>

  <!-- Row 0: PAVAN KUMAR <-> TOP LANG PY -->
  <g transform="translate(32, 42)">
    <rect x="0" y="0" width="56" height="60" rx="5" fill="#24211E" stroke="#34302C" stroke-width="1.2" filter="url(#sh)" />
    <g clip-path="url(#cb)"><text x="28" y="30" class="st" fill="#EDE8E1">P</text><text x="28" y="30" class="st" fill="#EDE8E1">T<animate attributeName="opacity" values="0;0;1;1;0" keyTimes="0;0.37;0.38;0.77;0.78;1" dur="7s" repeatCount="indefinite" begin="0.0s" /></text></g>
    <g clip-path="url(#ct)"><text x="28" y="30" class="st" fill="#EDE8E1">P</text><text x="28" y="30" class="st" fill="#EDE8E1">T<animate attributeName="opacity" values="0;0;1;1;0" keyTimes="0;0.35;0.36;0.75;0.76;1" dur="7s" repeatCount="indefinite" begin="0.0s" /></text></g>
    <g transform="translate(0, 30)"><g transform="translate(0, -30)" clip-path="url(#ct)"><rect x="0" y="0" width="56" height="30" rx="5" fill="#24211E" /><text x="28" y="30" class="st" fill="#EDE8E1">P</text></g><animateTransform attributeName="transform" type="scale" additive="sum" values="1 1; 1 1; 1 0; 1 0; 1 0" keyTimes="0;0.35;0.37;0.371;1" dur="7s" repeatCount="indefinite" begin="0.0s" /><animate attributeName="opacity" values="0;1;1;0;0" keyTimes="0;0.35;0.351;0.37;1" dur="7s" repeatCount="indefinite" begin="0.0s" /></g>
    <g transform="translate(0, 30)"><g transform="translate(0, -30)" clip-path="url(#ct)"><rect x="0" y="0" width="56" height="30" rx="5" fill="#24211E" /><text x="28" y="30" class="st" fill="#EDE8E1">T</text></g><animateTransform attributeName="transform" type="scale" additive="sum" values="1 1; 1 1; 1 0; 1 0; 1 0" keyTimes="0;0.75;0.77;0.771;1" dur="7s" repeatCount="indefinite" begin="0.0s" /><animate attributeName="opacity" values="0;0;1;1;0" keyTimes="0;0.75;0.751;0.77;1" dur="7s" repeatCount="indefinite" begin="0.0s" /></g>
    <rect x="0" y="0" width="56" height="30" rx="5" fill="url(#th)" pointer-events="none" /><rect x="0" y="30" width="56" height="6" fill="url(#cs)" pointer-events="none" /><line x1="0" y1="30" x2="56" y2="30" stroke="#121110" stroke-width="2" /><rect x="-1" y="28" width="2.5" height="5" rx="1" fill="#B5623B" /><rect x="54.5" y="28" width="2.5" height="5" rx="1" fill="#B5623B" />
  </g>
  <g transform="translate(94, 42)">
    <rect x="0" y="0" width="56" height="60" rx="5" fill="#24211E" stroke="#34302C" stroke-width="1.2" filter="url(#sh)" />
    <g clip-path="url(#cb)"><text x="28" y="30" class="st" fill="#EDE8E1">A</text><text x="28" y="30" class="st" fill="#EDE8E1">O<animate attributeName="opacity" values="0;0;1;1;0" keyTimes="0;0.37;0.38;0.77;0.78;1" dur="7s" repeatCount="indefinite" begin="0.04s" /></text></g>
    <g clip-path="url(#ct)"><text x="28" y="30" class="st" fill="#EDE8E1">A</text><text x="28" y="30" class="st" fill="#EDE8E1">O<animate attributeName="opacity" values="0;0;1;1;0" keyTimes="0;0.35;0.36;0.75;0.76;1" dur="7s" repeatCount="indefinite" begin="0.04s" /></text></g>
    <g transform="translate(0, 30)"><g transform="translate(0, -30)" clip-path="url(#ct)"><rect x="0" y="0" width="56" height="30" rx="5" fill="#24211E" /><text x="28" y="30" class="st" fill="#EDE8E1">A</text></g><animateTransform attributeName="transform" type="scale" additive="sum" values="1 1; 1 1; 1 0; 1 0; 1 0" keyTimes="0;0.35;0.37;0.371;1" dur="7s" repeatCount="indefinite" begin="0.04s" /><animate attributeName="opacity" values="0;1;1;0;0" keyTimes="0;0.35;0.351;0.37;1" dur="7s" repeatCount="indefinite" begin="0.04s" /></g>
    <g transform="translate(0, 30)"><g transform="translate(0, -30)" clip-path="url(#ct)"><rect x="0" y="0" width="56" height="30" rx="5" fill="#24211E" /><text x="28" y="30" class="st" fill="#EDE8E1">O</text></g><animateTransform attributeName="transform" type="scale" additive="sum" values="1 1; 1 1; 1 0; 1 0; 1 0" keyTimes="0;0.75;0.77;0.771;1" dur="7s" repeatCount="indefinite" begin="0.04s" /><animate attributeName="opacity" values="0;0;1;1;0" keyTimes="0;0.75;0.751;0.77;1" dur="7s" repeatCount="indefinite" begin="0.04s" /></g>
    <rect x="0" y="0" width="56" height="30" rx="5" fill="url(#th)" pointer-events="none" /><rect x="0" y="30" width="56" height="6" fill="url(#cs)" pointer-events="none" /><line x1="0" y1="30" x2="56" y2="30" stroke="#121110" stroke-width="2" /><rect x="-1" y="28" width="2.5" height="5" rx="1" fill="#B5623B" /><rect x="54.5" y="28" width="2.5" height="5" rx="1" fill="#B5623B" />
  </g>
  <g transform="translate(156, 42)">
    <rect x="0" y="0" width="56" height="60" rx="5" fill="#24211E" stroke="#34302C" stroke-width="1.2" filter="url(#sh)" />
    <g clip-path="url(#cb)"><text x="28" y="30" class="st" fill="#EDE8E1">V</text><text x="28" y="30" class="st" fill="#EDE8E1">P<animate attributeName="opacity" values="0;0;1;1;0" keyTimes="0;0.37;0.38;0.77;0.78;1" dur="7s" repeatCount="indefinite" begin="0.08s" /></text></g>
    <g clip-path="url(#ct)"><text x="28" y="30" class="st" fill="#EDE8E1">V</text><text x="28" y="30" class="st" fill="#EDE8E1">P<animate attributeName="opacity" values="0;0;1;1;0" keyTimes="0;0.35;0.36;0.75;0.76;1" dur="7s" repeatCount="indefinite" begin="0.08s" /></text></g>
    <g transform="translate(0, 30)"><g transform="translate(0, -30)" clip-path="url(#ct)"><rect x="0" y="0" width="56" height="30" rx="5" fill="#24211E" /><text x="28" y="30" class="st" fill="#EDE8E1">V</text></g><animateTransform attributeName="transform" type="scale" additive="sum" values="1 1; 1 1; 1 0; 1 0; 1 0" keyTimes="0;0.35;0.37;0.371;1" dur="7s" repeatCount="indefinite" begin="0.08s" /><animate attributeName="opacity" values="0;1;1;0;0" keyTimes="0;0.35;0.351;0.37;1" dur="7s" repeatCount="indefinite" begin="0.08s" /></g>
    <g transform="translate(0, 30)"><g transform="translate(0, -30)" clip-path="url(#ct)"><rect x="0" y="0" width="56" height="30" rx="5" fill="#24211E" /><text x="28" y="30" class="st" fill="#EDE8E1">P</text></g><animateTransform attributeName="transform" type="scale" additive="sum" values="1 1; 1 1; 1 0; 1 0; 1 0" keyTimes="0;0.75;0.77;0.771;1" dur="7s" repeatCount="indefinite" begin="0.08s" /><animate attributeName="opacity" values="0;0;1;1;0" keyTimes="0;0.75;0.751;0.77;1" dur="7s" repeatCount="indefinite" begin="0.08s" /></g>
    <rect x="0" y="0" width="56" height="30" rx="5" fill="url(#th)" pointer-events="none" /><rect x="0" y="30" width="56" height="6" fill="url(#cs)" pointer-events="none" /><line x1="0" y1="30" x2="56" y2="30" stroke="#121110" stroke-width="2" /><rect x="-1" y="28" width="2.5" height="5" rx="1" fill="#B5623B" /><rect x="54.5" y="28" width="2.5" height="5" rx="1" fill="#B5623B" />
  </g>
  <g transform="translate(218, 42)">
    <rect x="0" y="0" width="56" height="60" rx="5" fill="#24211E" stroke="#34302C" stroke-width="1.2" filter="url(#sh)" />
    <g clip-path="url(#cb)"><text x="28" y="30" class="st" fill="#EDE8E1">A</text><text x="28" y="30" class="st" fill="#EDE8E1"> <animate attributeName="opacity" values="0;0;1;1;0" keyTimes="0;0.37;0.38;0.77;0.78;1" dur="7s" repeatCount="indefinite" begin="0.12s" /></text></g>
    <g clip-path="url(#ct)"><text x="28" y="30" class="st" fill="#EDE8E1">A</text><text x="28" y="30" class="st" fill="#EDE8E1"> <animate attributeName="opacity" values="0;0;1;1;0" keyTimes="0;0.35;0.36;0.75;0.76;1" dur="7s" repeatCount="indefinite" begin="0.12s" /></text></g>
    <g transform="translate(0, 30)"><g transform="translate(0, -30)" clip-path="url(#ct)"><rect x="0" y="0" width="56" height="30" rx="5" fill="#24211E" /><text x="28" y="30" class="st" fill="#EDE8E1">A</text></g><animateTransform attributeName="transform" type="scale" additive="sum" values="1 1; 1 1; 1 0; 1 0; 1 0" keyTimes="0;0.35;0.37;0.371;1" dur="7s" repeatCount="indefinite" begin="0.12s" /><animate attributeName="opacity" values="0;1;1;0;0" keyTimes="0;0.35;0.351;0.37;1" dur="7s" repeatCount="indefinite" begin="0.12s" /></g>
    <g transform="translate(0, 30)"><g transform="translate(0, -30)" clip-path="url(#ct)"><rect x="0" y="0" width="56" height="30" rx="5" fill="#24211E" /><text x="28" y="30" class="st" fill="#EDE8E1"> </text></g><animateTransform attributeName="transform" type="scale" additive="sum" values="1 1; 1 1; 1 0; 1 0; 1 0" keyTimes="0;0.75;0.77;0.771;1" dur="7s" repeatCount="indefinite" begin="0.12s" /><animate attributeName="opacity" values="0;0;1;1;0" keyTimes="0;0.75;0.751;0.77;1" dur="7s" repeatCount="indefinite" begin="0.12s" /></g>
    <rect x="0" y="0" width="56" height="30" rx="5" fill="url(#th)" pointer-events="none" /><rect x="0" y="30" width="56" height="6" fill="url(#cs)" pointer-events="none" /><line x1="0" y1="30" x2="56" y2="30" stroke="#121110" stroke-width="2" /><rect x="-1" y="28" width="2.5" height="5" rx="1" fill="#B5623B" /><rect x="54.5" y="28" width="2.5" height="5" rx="1" fill="#B5623B" />
  </g>

  <!-- Row 1: AI/ML ENGNR <-> RAG SYSTEMS -->
  <g transform="translate(32, 106)">
    <rect x="0" y="0" width="56" height="60" rx="5" fill="#24211E" stroke="#34302C" stroke-width="1.2" filter="url(#sh)" />
    <g clip-path="url(#cb)"><text x="28" y="30" class="st" fill="#B5623B">A</text><text x="28" y="30" class="st" fill="#B5623B">R<animate attributeName="opacity" values="0;0;1;1;0" keyTimes="0;0.37;0.38;0.77;0.78;1" dur="7s" repeatCount="indefinite" begin="0.12s" /></text></g>
    <g clip-path="url(#ct)"><text x="28" y="30" class="st" fill="#B5623B">A</text><text x="28" y="30" class="st" fill="#B5623B">R<animate attributeName="opacity" values="0;0;1;1;0" keyTimes="0;0.35;0.36;0.75;0.76;1" dur="7s" repeatCount="indefinite" begin="0.12s" /></text></g>
    <g transform="translate(0, 30)"><g transform="translate(0, -30)" clip-path="url(#ct)"><rect x="0" y="0" width="56" height="30" rx="5" fill="#24211E" /><text x="28" y="30" class="st" fill="#B5623B">A</text></g><animateTransform attributeName="transform" type="scale" additive="sum" values="1 1; 1 1; 1 0; 1 0; 1 0" keyTimes="0;0.35;0.37;0.371;1" dur="7s" repeatCount="indefinite" begin="0.12s" /><animate attributeName="opacity" values="0;1;1;0;0" keyTimes="0;0.35;0.351;0.37;1" dur="7s" repeatCount="indefinite" begin="0.12s" /></g>
    <g transform="translate(0, 30)"><g transform="translate(0, -30)" clip-path="url(#ct)"><rect x="0" y="0" width="56" height="30" rx="5" fill="#24211E" /><text x="28" y="30" class="st" fill="#B5623B">R</text></g><animateTransform attributeName="transform" type="scale" additive="sum" values="1 1; 1 1; 1 0; 1 0; 1 0" keyTimes="0;0.75;0.77;0.771;1" dur="7s" repeatCount="indefinite" begin="0.12s" /><animate attributeName="opacity" values="0;0;1;1;0" keyTimes="0;0.75;0.751;0.77;1" dur="7s" repeatCount="indefinite" begin="0.12s" /></g>
    <rect x="0" y="0" width="56" height="30" rx="5" fill="url(#th)" pointer-events="none" /><rect x="0" y="30" width="56" height="6" fill="url(#cs)" pointer-events="none" /><line x1="0" y1="30" x2="56" y2="30" stroke="#121110" stroke-width="2" /><rect x="-1" y="28" width="2.5" height="5" rx="1" fill="#B5623B" /><rect x="54.5" y="28" width="2.5" height="5" rx="1" fill="#B5623B" />
  </g>
  <g transform="translate(94, 106)">
    <rect x="0" y="0" width="56" height="60" rx="5" fill="#24211E" stroke="#34302C" stroke-width="1.2" filter="url(#sh)" />
    <g clip-path="url(#cb)"><text x="28" y="30" class="st" fill="#B5623B">I</text><text x="28" y="30" class="st" fill="#B5623B">A<animate attributeName="opacity" values="0;0;1;1;0" keyTimes="0;0.37;0.38;0.77;0.78;1" dur="7s" repeatCount="indefinite" begin="0.16s" /></text></g>
    <g clip-path="url(#ct)"><text x="28" y="30" class="st" fill="#B5623B">I</text><text x="28" y="30" class="st" fill="#B5623B">A<animate attributeName="opacity" values="0;0;1;1;0" keyTimes="0;0.35;0.36;0.75;0.76;1" dur="7s" repeatCount="indefinite" begin="0.16s" /></text></g>
    <g transform="translate(0, 30)"><g transform="translate(0, -30)" clip-path="url(#ct)"><rect x="0" y="0" width="56" height="30" rx="5" fill="#24211E" /><text x="28" y="30" class="st" fill="#B5623B">I</text></g><animateTransform attributeName="transform" type="scale" additive="sum" values="1 1; 1 1; 1 0; 1 0; 1 0" keyTimes="0;0.35;0.37;0.371;1" dur="7s" repeatCount="indefinite" begin="0.16s" /><animate attributeName="opacity" values="0;1;1;0;0" keyTimes="0;0.35;0.351;0.37;1" dur="7s" repeatCount="indefinite" begin="0.16s" /></g>
    <g transform="translate(0, 30)"><g transform="translate(0, -30)" clip-path="url(#ct)"><rect x="0" y="0" width="56" height="30" rx="5" fill="#24211E" /><text x="28" y="30" class="st" fill="#B5623B">A</text></g><animateTransform attributeName="transform" type="scale" additive="sum" values="1 1; 1 1; 1 0; 1 0; 1 0" keyTimes="0;0.75;0.77;0.771;1" dur="7s" repeatCount="indefinite" begin="0.16s" /><animate attributeName="opacity" values="0;0;1;1;0" keyTimes="0;0.75;0.751;0.77;1" dur="7s" repeatCount="indefinite" begin="0.16s" /></g>
    <rect x="0" y="0" width="56" height="30" rx="5" fill="url(#th)" pointer-events="none" /><rect x="0" y="30" width="56" height="6" fill="url(#cs)" pointer-events="none" /><line x1="0" y1="30" x2="56" y2="30" stroke="#121110" stroke-width="2" /><rect x="-1" y="28" width="2.5" height="5" rx="1" fill="#B5623B" /><rect x="54.5" y="28" width="2.5" height="5" rx="1" fill="#B5623B" />
  </g>
  <g transform="translate(156, 106)">
    <rect x="0" y="0" width="56" height="60" rx="5" fill="#24211E" stroke="#34302C" stroke-width="1.2" filter="url(#sh)" />
    <g clip-path="url(#cb)"><text x="28" y="30" class="st" fill="#B5623B">/</text><text x="28" y="30" class="st" fill="#B5623B">G<animate attributeName="opacity" values="0;0;1;1;0" keyTimes="0;0.37;0.38;0.77;0.78;1" dur="7s" repeatCount="indefinite" begin="0.20s" /></text></g>
    <g clip-path="url(#ct)"><text x="28" y="30" class="st" fill="#B5623B">/</text><text x="28" y="30" class="st" fill="#B5623B">G<animate attributeName="opacity" values="0;0;1;1;0" keyTimes="0;0.35;0.36;0.75;0.76;1" dur="7s" repeatCount="indefinite" begin="0.20s" /></text></g>
    <g transform="translate(0, 30)"><g transform="translate(0, -30)" clip-path="url(#ct)"><rect x="0" y="0" width="56" height="30" rx="5" fill="#24211E" /><text x="28" y="30" class="st" fill="#B5623B">/</text></g><animateTransform attributeName="transform" type="scale" additive="sum" values="1 1; 1 1; 1 0; 1 0; 1 0" keyTimes="0;0.35;0.37;0.371;1" dur="7s" repeatCount="indefinite" begin="0.20s" /><animate attributeName="opacity" values="0;1;1;0;0" keyTimes="0;0.35;0.351;0.37;1" dur="7s" repeatCount="indefinite" begin="0.20s" /></g>
    <g transform="translate(0, 30)"><g transform="translate(0, -30)" clip-path="url(#ct)"><rect x="0" y="0" width="56" height="30" rx="5" fill="#24211E" /><text x="28" y="30" class="st" fill="#B5623B">G</text></g><animateTransform attributeName="transform" type="scale" additive="sum" values="1 1; 1 1; 1 0; 1 0; 1 0" keyTimes="0;0.75;0.77;0.771;1" dur="7s" repeatCount="indefinite" begin="0.20s" /><animate attributeName="opacity" values="0;0;1;1;0" keyTimes="0;0.75;0.751;0.77;1" dur="7s" repeatCount="indefinite" begin="0.20s" /></g>
    <rect x="0" y="0" width="56" height="30" rx="5" fill="url(#th)" pointer-events="none" /><rect x="0" y="30" width="56" height="6" fill="url(#cs)" pointer-events="none" /><line x1="0" y1="30" x2="56" y2="30" stroke="#121110" stroke-width="2" /><rect x="-1" y="28" width="2.5" height="5" rx="1" fill="#B5623B" /><rect x="54.5" y="28" width="2.5" height="5" rx="1" fill="#B5623B" />
  </g>

  <!-- Row 2: 100+ REPOS <-> ADMET AI -->
  <g transform="translate(32, 170)">
    <rect x="0" y="0" width="56" height="60" rx="5" fill="#24211E" stroke="#34302C" stroke-width="1.2" filter="url(#sh)" />
    <g clip-path="url(#cb)"><text x="28" y="30" class="st" fill="#B5623B">1</text><text x="28" y="30" class="st" fill="#EDE8E1">A<animate attributeName="opacity" values="0;0;1;1;0" keyTimes="0;0.37;0.38;0.77;0.78;1" dur="7s" repeatCount="indefinite" begin="0.24s" /></text></g>
    <g clip-path="url(#ct)"><text x="28" y="30" class="st" fill="#B5623B">1</text><text x="28" y="30" class="st" fill="#EDE8E1">A<animate attributeName="opacity" values="0;0;1;1;0" keyTimes="0;0.35;0.36;0.75;0.76;1" dur="7s" repeatCount="indefinite" begin="0.24s" /></text></g>
    <g transform="translate(0, 30)"><g transform="translate(0, -30)" clip-path="url(#ct)"><rect x="0" y="0" width="56" height="30" rx="5" fill="#24211E" /><text x="28" y="30" class="st" fill="#B5623B">1</text></g><animateTransform attributeName="transform" type="scale" additive="sum" values="1 1; 1 1; 1 0; 1 0; 1 0" keyTimes="0;0.35;0.37;0.371;1" dur="7s" repeatCount="indefinite" begin="0.24s" /><animate attributeName="opacity" values="0;1;1;0;0" keyTimes="0;0.35;0.351;0.37;1" dur="7s" repeatCount="indefinite" begin="0.24s" /></g>
    <g transform="translate(0, 30)"><g transform="translate(0, -30)" clip-path="url(#ct)"><rect x="0" y="0" width="56" height="30" rx="5" fill="#24211E" /><text x="28" y="30" class="st" fill="#EDE8E1">A</text></g><animateTransform attributeName="transform" type="scale" additive="sum" values="1 1; 1 1; 1 0; 1 0; 1 0" keyTimes="0;0.75;0.77;0.771;1" dur="7s" repeatCount="indefinite" begin="0.24s" /><animate attributeName="opacity" values="0;0;1;1;0" keyTimes="0;0.75;0.751;0.77;1" dur="7s" repeatCount="indefinite" begin="0.24s" /></g>
    <rect x="0" y="0" width="56" height="30" rx="5" fill="url(#th)" pointer-events="none" /><rect x="0" y="30" width="56" height="6" fill="url(#cs)" pointer-events="none" /><line x1="0" y1="30" x2="56" y2="30" stroke="#121110" stroke-width="2" /><rect x="-1" y="28" width="2.5" height="5" rx="1" fill="#B5623B" /><rect x="54.5" y="28" width="2.5" height="5" rx="1" fill="#B5623B" />
  </g>
  <g transform="translate(94, 170)">
    <rect x="0" y="0" width="56" height="60" rx="5" fill="#24211E" stroke="#34302C" stroke-width="1.2" filter="url(#sh)" />
    <g clip-path="url(#cb)"><text x="28" y="30" class="st" fill="#B5623B">0</text><text x="28" y="30" class="st" fill="#EDE8E1">D<animate attributeName="opacity" values="0;0;1;1;0" keyTimes="0;0.37;0.38;0.77;0.78;1" dur="7s" repeatCount="indefinite" begin="0.28s" /></text></g>
    <g clip-path="url(#ct)"><text x="28" y="30" class="st" fill="#B5623B">0</text><text x="28" y="30" class="st" fill="#EDE8E1">D<animate attributeName="opacity" values="0;0;1;1;0" keyTimes="0;0.35;0.36;0.75;0.76;1" dur="7s" repeatCount="indefinite" begin="0.28s" /></text></g>
    <g transform="translate(0, 30)"><g transform="translate(0, -30)" clip-path="url(#ct)"><rect x="0" y="0" width="56" height="30" rx="5" fill="#24211E" /><text x="28" y="30" class="st" fill="#B5623B">0</text></g><animateTransform attributeName="transform" type="scale" additive="sum" values="1 1; 1 1; 1 0; 1 0; 1 0" keyTimes="0;0.35;0.37;0.371;1" dur="7s" repeatCount="indefinite" begin="0.28s" /><animate attributeName="opacity" values="0;1;1;0;0" keyTimes="0;0.35;0.351;0.37;1" dur="7s" repeatCount="indefinite" begin="0.28s" /></g>
    <g transform="translate(0, 30)"><g transform="translate(0, -30)" clip-path="url(#ct)"><rect x="0" y="0" width="56" height="30" rx="5" fill="#24211E" /><text x="28" y="30" class="st" fill="#EDE8E1">D</text></g><animateTransform attributeName="transform" type="scale" additive="sum" values="1 1; 1 1; 1 0; 1 0; 1 0" keyTimes="0;0.75;0.77;0.771;1" dur="7s" repeatCount="indefinite" begin="0.28s" /><animate attributeName="opacity" values="0;0;1;1;0" keyTimes="0;0.75;0.751;0.77;1" dur="7s" repeatCount="indefinite" begin="0.28s" /></g>
    <rect x="0" y="0" width="56" height="30" rx="5" fill="url(#th)" pointer-events="none" /><rect x="0" y="30" width="56" height="6" fill="url(#cs)" pointer-events="none" /><line x1="0" y1="30" x2="56" y2="30" stroke="#121110" stroke-width="2" /><rect x="-1" y="28" width="2.5" height="5" rx="1" fill="#B5623B" /><rect x="54.5" y="28" width="2.5" height="5" rx="1" fill="#B5623B" />
  </g>

  <!-- Row 3: 500+ COMMIT <-> 3X HACKATHN -->
  <g transform="translate(32, 234)">
    <rect x="0" y="0" width="56" height="60" rx="5" fill="#24211E" stroke="#34302C" stroke-width="1.2" filter="url(#sh)" />
    <g clip-path="url(#cb)"><text x="28" y="30" class="st" fill="#B5623B">5</text><text x="28" y="30" class="st" fill="#B5623B">3<animate attributeName="opacity" values="0;0;1;1;0" keyTimes="0;0.37;0.38;0.77;0.78;1" dur="7s" repeatCount="indefinite" begin="0.36s" /></text></g>
    <g clip-path="url(#ct)"><text x="28" y="30" class="st" fill="#B5623B">5</text><text x="28" y="30" class="st" fill="#B5623B">3<animate attributeName="opacity" values="0;0;1;1;0" keyTimes="0;0.35;0.36;0.75;0.76;1" dur="7s" repeatCount="indefinite" begin="0.36s" /></text></g>
    <g transform="translate(0, 30)"><g transform="translate(0, -30)" clip-path="url(#ct)"><rect x="0" y="0" width="56" height="30" rx="5" fill="#24211E" /><text x="28" y="30" class="st" fill="#B5623B">5</text></g><animateTransform attributeName="transform" type="scale" additive="sum" values="1 1; 1 1; 1 0; 1 0; 1 0" keyTimes="0;0.35;0.37;0.371;1" dur="7s" repeatCount="indefinite" begin="0.36s" /><animate attributeName="opacity" values="0;1;1;0;0" keyTimes="0;0.35;0.351;0.37;1" dur="7s" repeatCount="indefinite" begin="0.36s" /></g>
    <g transform="translate(0, 30)"><g transform="translate(0, -30)" clip-path="url(#ct)"><rect x="0" y="0" width="56" height="30" rx="5" fill="#24211E" /><text x="28" y="30" class="st" fill="#B5623B">3</text></g><animateTransform attributeName="transform" type="scale" additive="sum" values="1 1; 1 1; 1 0; 1 0; 1 0" keyTimes="0;0.75;0.77;0.771;1" dur="7s" repeatCount="indefinite" begin="0.36s" /><animate attributeName="opacity" values="0;0;1;1;0" keyTimes="0;0.75;0.751;0.77;1" dur="7s" repeatCount="indefinite" begin="0.36s" /></g>
    <rect x="0" y="0" width="56" height="30" rx="5" fill="url(#th)" pointer-events="none" /><rect x="0" y="30" width="56" height="6" fill="url(#cs)" pointer-events="none" /><line x1="0" y1="30" x2="56" y2="30" stroke="#121110" stroke-width="2" /><rect x="-1" y="28" width="2.5" height="5" rx="1" fill="#B5623B" /><rect x="54.5" y="28" width="2.5" height="5" rx="1" fill="#B5623B" />
  </g>
  <g transform="translate(94, 234)">
    <rect x="0" y="0" width="56" height="60" rx="5" fill="#24211E" stroke="#34302C" stroke-width="1.2" filter="url(#sh)" />
    <g clip-path="url(#cb)"><text x="28" y="30" class="st" fill="#B5623B">0</text><text x="28" y="30" class="st" fill="#B5623B">X<animate attributeName="opacity" values="0;0;1;1;0" keyTimes="0;0.37;0.38;0.77;0.78;1" dur="7s" repeatCount="indefinite" begin="0.40s" /></text></g>
    <g clip-path="url(#ct)"><text x="28" y="30" class="st" fill="#B5623B">0</text><text x="28" y="30" class="st" fill="#B5623B">X<animate attributeName="opacity" values="0;0;1;1;0" keyTimes="0;0.35;0.36;0.75;0.76;1" dur="7s" repeatCount="indefinite" begin="0.40s" /></text></g>
    <g transform="translate(0, 30)"><g transform="translate(0, -30)" clip-path="url(#ct)"><rect x="0" y="0" width="56" height="30" rx="5" fill="#24211E" /><text x="28" y="30" class="st" fill="#B5623B">0</text></g><animateTransform attributeName="transform" type="scale" additive="sum" values="1 1; 1 1; 1 0; 1 0; 1 0" keyTimes="0;0.35;0.37;0.371;1" dur="7s" repeatCount="indefinite" begin="0.40s" /><animate attributeName="opacity" values="0;1;1;0;0" keyTimes="0;0.35;0.351;0.37;1" dur="7s" repeatCount="indefinite" begin="0.40s" /></g>
    <g transform="translate(0, 30)"><g transform="translate(0, -30)" clip-path="url(#ct)"><rect x="0" y="0" width="56" height="30" rx="5" fill="#24211E" /><text x="28" y="30" class="st" fill="#B5623B">X</text></g><animateTransform attributeName="transform" type="scale" additive="sum" values="1 1; 1 1; 1 0; 1 0; 1 0" keyTimes="0;0.75;0.77;0.771;1" dur="7s" repeatCount="indefinite" begin="0.40s" /><animate attributeName="opacity" values="0;0;1;1;0" keyTimes="0;0.75;0.751;0.77;1" dur="7s" repeatCount="indefinite" begin="0.40s" /></g>
    <rect x="0" y="0" width="56" height="30" rx="5" fill="url(#th)" pointer-events="none" /><rect x="0" y="30" width="56" height="6" fill="url(#cs)" pointer-events="none" /><line x1="0" y1="30" x2="56" y2="30" stroke="#121110" stroke-width="2" /><rect x="-1" y="28" width="2.5" height="5" rx="1" fill="#B5623B" /><rect x="54.5" y="28" width="2.5" height="5" rx="1" fill="#B5623B" />
  </g>

  <!-- Row 4: STREAK 45D <-> BUILD W/ <3 -->
  <g transform="translate(32, 298)">
    <rect x="0" y="0" width="56" height="60" rx="5" fill="#24211E" stroke="#34302C" stroke-width="1.2" filter="url(#sh)" />
    <g clip-path="url(#cb)"><text x="28" y="30" class="st" fill="#EDE8E1">S</text><text x="28" y="30" class="st" fill="#EDE8E1">B<animate attributeName="opacity" values="0;0;1;1;0" keyTimes="0;0.37;0.38;0.77;0.78;1" dur="7s" repeatCount="indefinite" begin="0.48s" /></text></g>
    <g clip-path="url(#ct)"><text x="28" y="30" class="st" fill="#EDE8E1">S</text><text x="28" y="30" class="st" fill="#EDE8E1">B<animate attributeName="opacity" values="0;0;1;1;0" keyTimes="0;0.35;0.36;0.75;0.76;1" dur="7s" repeatCount="indefinite" begin="0.48s" /></text></g>
    <g transform="translate(0, 30)"><g transform="translate(0, -30)" clip-path="url(#ct)"><rect x="0" y="0" width="56" height="30" rx="5" fill="#24211E" /><text x="28" y="30" class="st" fill="#EDE8E1">S</text></g><animateTransform attributeName="transform" type="scale" additive="sum" values="1 1; 1 1; 1 0; 1 0; 1 0" keyTimes="0;0.35;0.37;0.371;1" dur="7s" repeatCount="indefinite" begin="0.48s" /><animate attributeName="opacity" values="0;1;1;0;0" keyTimes="0;0.35;0.351;0.37;1" dur="7s" repeatCount="indefinite" begin="0.48s" /></g>
    <g transform="translate(0, 30)"><g transform="translate(0, -30)" clip-path="url(#ct)"><rect x="0" y="0" width="56" height="30" rx="5" fill="#24211E" /><text x="28" y="30" class="st" fill="#EDE8E1">B</text></g><animateTransform attributeName="transform" type="scale" additive="sum" values="1 1; 1 1; 1 0; 1 0; 1 0" keyTimes="0;0.75;0.77;0.771;1" dur="7s" repeatCount="indefinite" begin="0.48s" /><animate attributeName="opacity" values="0;0;1;1;0" keyTimes="0;0.75;0.751;0.77;1" dur="7s" repeatCount="indefinite" begin="0.48s" /></g>
    <rect x="0" y="0" width="56" height="30" rx="5" fill="url(#th)" pointer-events="none" /><rect x="0" y="30" width="56" height="6" fill="url(#cs)" pointer-events="none" /><line x1="0" y1="30" x2="56" y2="30" stroke="#121110" stroke-width="2" /><rect x="-1" y="28" width="2.5" height="5" rx="1" fill="#B5623B" /><rect x="54.5" y="28" width="2.5" height="5" rx="1" fill="#B5623B" />
  </g>
  <g transform="translate(466, 298)">
    <rect x="0" y="0" width="56" height="60" rx="5" fill="#24211E" stroke="#34302C" stroke-width="1.2" filter="url(#sh)" />
    <g clip-path="url(#cb)"><text x="28" y="30" class="st" fill="#B5623B">4</text><text x="28" y="30" class="st" fill="#B5623B">/<animate attributeName="opacity" values="0;0;1;1;0" keyTimes="0;0.37;0.38;0.77;0.78;1" dur="7s" repeatCount="indefinite" begin="0.76s" /></text></g>
    <g clip-path="url(#ct)"><text x="28" y="30" class="st" fill="#B5623B">4</text><text x="28" y="30" class="st" fill="#B5623B">/<animate attributeName="opacity" values="0;0;1;1;0" keyTimes="0;0.35;0.36;0.75;0.76;1" dur="7s" repeatCount="indefinite" begin="0.76s" /></text></g>
    <g transform="translate(0, 30)"><g transform="translate(0, -30)" clip-path="url(#ct)"><rect x="0" y="0" width="56" height="30" rx="5" fill="#24211E" /><text x="28" y="30" class="st" fill="#B5623B">4</text></g><animateTransform attributeName="transform" type="scale" additive="sum" values="1 1; 1 1; 1 0; 1 0; 1 0" keyTimes="0;0.35;0.37;0.371;1" dur="7s" repeatCount="indefinite" begin="0.76s" /><animate attributeName="opacity" values="0;1;1;0;0" keyTimes="0;0.35;0.351;0.37;1" dur="7s" repeatCount="indefinite" begin="0.76s" /></g>
    <g transform="translate(0, 30)"><g transform="translate(0, -30)" clip-path="url(#ct)"><rect x="0" y="0" width="56" height="30" rx="5" fill="#24211E" /><text x="28" y="30" class="st" fill="#B5623B">/</text></g><animateTransform attributeName="transform" type="scale" additive="sum" values="1 1; 1 1; 1 0; 1 0; 1 0" keyTimes="0;0.75;0.77;0.771;1" dur="7s" repeatCount="indefinite" begin="0.76s" /><animate attributeName="opacity" values="0;0;1;1;0" keyTimes="0;0.75;0.751;0.77;1" dur="7s" repeatCount="indefinite" begin="0.76s" /></g>
    <rect x="0" y="0" width="56" height="30" rx="5" fill="url(#th)" pointer-events="none" /><rect x="0" y="30" width="56" height="6" fill="url(#cs)" pointer-events="none" /><line x1="0" y1="30" x2="56" y2="30" stroke="#121110" stroke-width="2" /><rect x="-1" y="28" width="2.5" height="5" rx="1" fill="#B5623B" /><rect x="54.5" y="28" width="2.5" height="5" rx="1" fill="#B5623B" />
  </g>
  <g transform="translate(590, 298)">
    <rect x="0" y="0" width="56" height="60" rx="5" fill="#24211E" stroke="#34302C" stroke-width="1.2" filter="url(#sh)" />
    <g clip-path="url(#cb)"><text x="28" y="30" class="st" fill="#B5623B">D</text><text x="28" y="30" class="st" fill="#B5623B">&lt;<animate attributeName="opacity" values="0;0;1;1;0" keyTimes="0;0.37;0.38;0.77;0.78;1" dur="7s" repeatCount="indefinite" begin="0.84s" /></text></g>
    <g clip-path="url(#ct)"><text x="28" y="30" class="st" fill="#B5623B">D</text><text x="28" y="30" class="st" fill="#B5623B">&lt;<animate attributeName="opacity" values="0;0;1;1;0" keyTimes="0;0.35;0.36;0.75;0.76;1" dur="7s" repeatCount="indefinite" begin="0.84s" /></text></g>
    <g transform="translate(0, 30)"><g transform="translate(0, -30)" clip-path="url(#ct)"><rect x="0" y="0" width="56" height="30" rx="5" fill="#24211E" /><text x="28" y="30" class="st" fill="#B5623B">D</text></g><animateTransform attributeName="transform" type="scale" additive="sum" values="1 1; 1 1; 1 0; 1 0; 1 0" keyTimes="0;0.35;0.37;0.371;1" dur="7s" repeatCount="indefinite" begin="0.84s" /><animate attributeName="opacity" values="0;1;1;0;0" keyTimes="0;0.35;0.351;0.37;1" dur="7s" repeatCount="indefinite" begin="0.84s" /></g>
    <g transform="translate(0, 30)"><g transform="translate(0, -30)" clip-path="url(#ct)"><rect x="0" y="0" width="56" height="30" rx="5" fill="#24211E" /><text x="28" y="30" class="st" fill="#B5623B">&lt;</text></g><animateTransform attributeName="transform" type="scale" additive="sum" values="1 1; 1 1; 1 0; 1 0; 1 0" keyTimes="0;0.75;0.77;0.771;1" dur="7s" repeatCount="indefinite" begin="0.84s" /><animate attributeName="opacity" values="0;0;1;1;0" keyTimes="0;0.75;0.751;0.77;1" dur="7s" repeatCount="indefinite" begin="0.84s" /></g>
    <rect x="0" y="0" width="56" height="30" rx="5" fill="url(#th)" pointer-events="none" /><rect x="0" y="30" width="56" height="6" fill="url(#cs)" pointer-events="none" /><line x1="0" y1="30" x2="56" y2="30" stroke="#121110" stroke-width="2" /><rect x="-1" y="28" width="2.5" height="5" rx="1" fill="#B5623B" /><rect x="54.5" y="28" width="2.5" height="5" rx="1" fill="#B5623B" />
  </g>
</svg>
